<svg xmlns="http://www.w3.org/2000/svg" viewBox="0 0 1566.73 205.36"><defs><style>.cls-1{fill:#18243d;}</style></defs><title>Asset 1</title><g id="Layer_2" data-name="Layer 2"><g id="Layer_1-2" data-name="Layer 1"><path class="cls-1" d="M146,162.79H114.39l-13.11-38.12H38.13L25.26,162.79H0L54.49,2.7H90.94ZM93.34,101.57,69.41,30.14,45.47,101.57Z"/><path class="cls-1" d="M191.5,44.33V160.91q0,44.34-41.74,44.34a78.78,78.78,0,0,1-14.08-1.41V181.2a80.37,80.37,0,0,0,8.78.59q11.43,0,15.52-4.22t4.09-16.66V44.33Zm0-13.84H164.07V2.7H191.5Z"/><path class="cls-1" d="M328.38,162.79h-26.1a94.23,94.23,0,0,1-4.21-23.93q-10.95,26.4-41.14,26.39-18.17,0-29.17-10.38t-11-26.09Q216.76,88,290.25,88c1.93,0,4.53,0,7.82.12V79.17q0-18.42-25.74-18.42-25,0-28.39,18.42l-23.33-3.41Q222.53,61,236.24,51.43t39.7-9.56q14.07,0,23,2.29a35.4,35.4,0,0,1,15,7.74,29.65,29.65,0,0,1,8.48,11.84q2.34,6.41,2.34,21.64v53.48A85.15,85.15,0,0,0,328.38,162.79Zm-30.31-60.28q-53.17,0-53.17,24.74a17,17,0,0,0,5.36,12.61q5.34,5.22,16.17,5.22,15.65,0,23.64-9.68a33.58,33.58,0,0,0,8-22Z"/><path class="cls-1" d="M444.1,44.33,396.83,179.21Q392.5,191.63,385,198.5t-21.23,6.86q-5.42,0-15.76-.82V183.31l13.11.24q8.65,0,12.81-2.76t6.56-9.79q2.4-7,2.4-8.21a53.4,53.4,0,0,0-2.52-7.27L338.61,44.33h28.75l29.47,78.11,25.38-78.11Z"/><path class="cls-1" d="M489.08,2.7V29.09l-18.4,31.43h-8.9L475,29.09H461.78V2.7Z"/><path class="cls-1" d="M506.77,135.58l25.74-4.81q5.9,14.43,26,14.43,25.5,0,25.5-14.66a9.35,9.35,0,0,0-4-7.74,21.91,21.91,0,0,0-9.38-4.11l-22.13-4.1q-36.81-6.93-36.81-35.07a35.23,35.23,0,0,1,11.67-26.68q11.65-11,34.76-11,38.49,0,47,27.56l-24.42,4.81q-3.84-13.36-21.89-13.37Q537,60.87,537,74.24q0,9.27,17.68,12.78l26.1,5.28q30.43,6.11,30.44,34,0,19.59-15.64,29.27t-37.17,9.67q-18.64,0-33-7.33T506.77,135.58Z"/><path class="cls-1" d="M726.17,162.79H696.58V2.7h67.24q28.74,0,42.64,14.13T820.35,50.2q0,21.93-15,35.53T767.19,99.34h-41Zm0-88.2h35q13.71,0,20.93-6.57t7.22-17.47a23.67,23.67,0,0,0-6.68-16.89q-6.67-7-24.11-7H726.17Z"/><path class="cls-1" d="M886.63,165.25q-26.94,0-41.14-18.88a70.12,70.12,0,0,1-14.19-43.28q0-26.27,15.7-43.74t41.44-17.48q24.4,0,40.11,17t15.7,44.21q0,28-16.3,45.1T886.63,165.25Zm1-22.05q27.67,0,27.67-40.23,0-18.16-6.62-28.67T888.32,63.8q-14.21,0-21.05,10.85t-6.86,28.79q0,19.35,7.28,29.56A23.14,23.14,0,0,0,887.59,143.2Z"/><path class="cls-1" d="M996.81,162.79H969.39V44.33h24.78V72.6q5.3-16.54,14.55-24.16t19-7.63c.88,0,2.08,0,3.61.12V69.67q-20.94,0-27.73,13t-6.8,25.22Z"/><path class="cls-1" d="M1112.29,141.91v20.88q-12.27,2.58-19,2.58-11.05,0-19-4.28a26.56,26.56,0,0,1-11.61-11.73q-3.68-7.44-3.67-22.93V65.09h-15.15V44.33h16.72l2.52-30.84,22.5-2V44.33H1110V65.09h-24.41v57.82q0,11.15,4.15,15.19t15.69,4.05C1107.6,142.15,1109.88,142.07,1112.29,141.91Z"/><path class="cls-1" d="M1166.06,162.79h-26.47V65.09h-18V44.33h18V38.47q0-17.35,8.66-27.91t35-10.56q3.84,0,9.74.23v21c-3.45-.24-5.81-.35-7.1-.35q-10.1,0-14.19,2.64c-2.73,1.75-4.35,3.83-4.87,6.21s-.78,7.25-.78,14.6H1193V65.09h-26.94Z"/><path class="cls-1" d="M1258.32,165.25q-27,0-41.14-18.88A70.12,70.12,0,0,1,1203,103.09q0-26.27,15.69-43.74t41.44-17.48q24.42,0,40.12,17t15.69,44.21q0,28-16.29,45.1T1258.32,165.25Zm1-22.05q27.66,0,27.67-40.23,0-18.16-6.62-28.67T1260,63.8q-14.19,0-21,10.85t-6.86,28.79q0,19.35,7.28,29.56A23.16,23.16,0,0,0,1259.28,143.2Z"/><path class="cls-1" d="M1368.38,162.79H1341V2.7h27.43Z"/><path class="cls-1" d="M1428.64,30.49h-27.42V2.7h27.42Zm0,132.3h-27.42V44.33h27.42Z"/><path class="cls-1" d="M1509.11,165.25q-26.94,0-41.13-18.88a70.07,70.07,0,0,1-14.2-43.28q0-26.27,15.7-43.74t41.44-17.48q24.42,0,40.11,17t15.7,44.21q0,28-16.3,45.1T1509.11,165.25Zm1-22.05q27.66,0,27.66-40.23,0-18.16-6.61-28.67T1510.8,63.8q-14.19,0-21,10.85t-6.86,28.79q0,19.35,7.28,29.56A23.16,23.16,0,0,0,1510.08,143.2Z"/></g></g></svg>